<svg width="121" height="120" viewBox="0 0 121 120" fill="none" xmlns="http://www.w3.org/2000/svg">
<path d="M43.9922 46.7031L39.6719 35.6016H22.0898L17.9062 46.7031H12L27.8047 7H34.1211L49.9258 46.7031H43.9922ZM30.8398 12.7148L24.0586 30.5156H37.7305L30.8398 12.7148Z" fill="#330066"/>
<path d="M57.2734 92.5391H65.2305C67.6003 92.5391 69.4688 91.9375 70.8359 90.7344C72.2031 89.513 72.8867 87.8724 72.8867 85.8125C72.8867 83.6979 72.2031 82.0208 70.8359 80.7812C69.4688 79.5417 67.6003 78.9219 65.2305 78.9219H57.2734V92.5391ZM66.2422 97.4609H57.2734V113.703H51.7773V74H66.2422C69.8698 74 72.8138 75.1211 75.0742 77.3633C77.3529 79.5872 78.4922 82.3854 78.4922 85.7578C78.4922 89.1484 77.3529 91.9466 75.0742 94.1523C72.8138 96.3581 69.8698 97.4609 66.2422 97.4609Z" fill="#330066"/>
<path d="M90.5586 46.7031H85.0625V7H109.207V12.0859H90.5586V24.8555H107.484V30.0234H90.5586V46.7031Z" fill="#330066"/>
</svg>
